<?xml version="1.0" encoding="UTF-8"?>
<svg id="Ebene_1" xmlns="http://www.w3.org/2000/svg" version="1.1" viewBox="0 0 1024 1024">
  <!-- Generator: Adobe Illustrator 29.3.0, SVG Export Plug-In . SVG Version: 2.1.0 Build 146)  -->
  <defs>
    <style>
      .st0 {
        fill: none;
      }

      .st1 {
        fill: #fcf7ee;
      }

      .st2 {
        fill: #38a0d1;
      }

      .st3 {
        fill: #fbb11a;
      }

      .st4 {
        fill: #0d1529;
      }

      .st5 {
        fill: #fbb519;
      }

      .st6 {
        fill: #0c2a46;
      }

      .st7 {
        fill: #fbf7ee;
      }

      .st8 {
        fill: #f0c613;
      }

      .st9 {
        fill: #0b2a46;
      }

      .st10 {
        fill: #e48639;
      }

      .st11 {
        fill: #080e23;
      }

      .st12 {
        fill: #131a4b;
      }

      .st13 {
        fill: #08104e;
      }

      .st14 {
        fill: #f7d50f;
      }
    </style>
  </defs>
  <g>
    <g>
      <path class="st11" d="M416.2,673.3c-1.7,0-1.4-1.7-2.6-2.9s-2.3-1.4-3.2-2l-10.4-1.4c6.7-.3,13-.3,16.2,6.4h0Z"/>
      <path class="st2" d="M460.8,666.3h-6.4"/>
      <path class="st12" d="M646.3,498.2c-.2-.2-.4-.3-.6-.6l.6.6Z"/>
    </g>
    <g>
      <path class="st11" d="M362.2,666.3c-2.7,2-6.4,1.9-8.1,5.2v-.6c2.1-2.8,4.3-4.8,8.1-4.6h0Z"/>
      <path class="st4" d="M652.7,763.2c-1-.8-.6-2.8-.6-4.1,1,.8.5,2.8.6,4.1Z"/>
      <path class="st4" d="M651.6,747.5c-1-.6-.6-2.4-.6-3.5,1,.6.6,2.4.6,3.5Z"/>
      <g>
        <path class="st9" d="M362.3,665.8l203.9,2.6c.9.1,1.4.2,1.4.2-.2,0,0,0,1.3,0l69.8.5h.2c3.9,1.3,6.6,5.3,7.4,9.2.9,3.9,0,0,0,0l6.4,92.1v8.1c0,2.5.3.6.6.6h0c.3,0,.6.3.6.6,0,.8,0,1.6,0,2.3,0,.5-.3,1,.3,1.2,17.9,3.7,35.5,9.5,53.5,13,.8.2,2.1.6,2.8,0s.3-.2.5-.2c3.1.6,5.7,2.7,7.7,5,2,2.4,0,.2,0,.3.2,2,1.7,3.3,2.1,5.5,1.6,8.2-.5,21.6-1,30.3-.4,7.4-.5,15.2-1.2,22.6-1.2,12.8-5.3,19.1-18.4,19.7-.3,0-1.7,0-2.1-.2-.9-.2-.8,0-1.7-.3-8.9-2-54.6-10.7-63.7-13-28.8-7.5-15.7,47.7-45.3,45.3l-34.7-2.4-36.3-1.6c-9.3-.5-29.7-.6-39-1-29.6,1.2-44.5,4.7-74.7,7.3-29-5.8-10.8-45.7-31.4-43l-58,3.2M313.3,873.7c-5.2-1.6-5-.9-12.5-20.5-4-14.4-11.1-30.6-12.1-44.6-.5-6.1,3.3-11.5,9.1-13.4,12.8-4.2,28.5-6.1,41.9-10,2.3-.6,5.7-.9,7.5-2.3,1-.8,1-1.4,1.2-2.6s0,0,0,0c.8-27.8,3.1-55.7,4.1-83.4.3-8.2-1.5-17.7,1.7-25.2s0,0,0,0c1.8-3.3,5.4-3.1,8.1-5.2v-.6M434.1,727.2l-2.2-5.1.2-1.9c9.6-13.5,20.3-26.3,29.2-40.2-.4-4.8-13-2.2-16.4-2.1-3.4,0-7.1-.2-10.4-.5-1.6.2-7,7.2-7.9,9.1l-24.4,31.6-1.7.3v-1.7c1.7.3,1.1-.9,1.2-2,.2-5.6-.2-11.2,0-16.9,0-1.2,1.7-5.3-.6-4.9,0-2.1,1-13.3,0-13.9-.6-1-2.2-.6-3.2-.6-7.4,0-16.7-.6-23.8,0-1.8.2-3.9.5-4.3,2.7-.5,7-.3,14.1-.6,21.2-1.2,25.3-2.6,50.8-3.5,76.2-.1,2.4-.3,4.6,1.3,6.6,1.7.2,3.6.2,5.4,0,6.1-.3,16.8-1.2,22.6-2.3.8,0,2.8-1.4,3.2-2,.5-.6,1-7.2,1.1-8.8.3-5.3-.4-10.7.3-15.9l9.9-12.1c.7-.3,2.3,2.4,2.8,3,2.6,3.6,5,8.2,7.4,12.1,3,4.9,5.9,10.9,9.2,15.5,1,1.3,3.1,4.3,4.6,4.6l23.7-.4c2.1-.7,7,.2,7.2-2.7.3-3.3-15.8-25-17.5-30-1.2-2-3.3-4.3-4.5-6.2-2.7-4.2-5.6-8.4-8.1-12.8h-.2ZM471.2,678.5s-.3.5-.6.6c0,0,0-.5-.3-.6-1.5,1-1.7,2.5-1.4,4.3,5.3,22.7,9.2,45.7,15,68.2.9,4.8,1.7,9.2,2.9,13.9,0,.3.7.9.9,1.7.8,2.7.8,6.9,2,9.3.2.5.6,1.2,1.2,1.4,1.3.6,19.7.6,22.3.3,1.8-.2,2.7-.3,3.8-1.7,1.7-2.1,3.1-8.6,3.9-11.5,1.4-5,2.3-10.2,3.7-15.2,2-7.3,4.2-16.8,6.7-23.8.2-.6,0-1.3.9-1.2l12.8,49.6c0,.9,1,1.2,1.2,1.4,0,0,.4.3.6.6,0,0-.2.7.4,1.2,2.2,1.9,6.9.9,9.8,1.1,4.8.3,9.7.6,14.4,1.2,2.4,0,1.9-1.5,2.1-1.7l.6-.6c0-.2,1.3-.5,1.2-1.4,5.2-27.7,12.4-54.9,17.8-82.5.9-4.6,4.7-13.9-1.9-14.6-4-.5-14.6-.5-18.6,0-1.7.2-3.5,1-4.2,2.8-1.7,4.3-2.8,14.7-3.7,19.8v.6c-2.1,5.1-2.6,10.8-3.5,16.2v.6c-1.8,4.2-2.1,8.9-2.9,13.3-2.1.4-.9-3.1-2.3-4.1-2.6-13.6-7-31-11.2-44.2-.6-2-.6-3.1-2.1-4.5-.2-.2-.2-.7-.6-.9-1.2-.5-15.7-.6-17.7-.3-1.6.2-2.4.8-3,2.2-2.9,6.4-4.5,16.9-6.6,23.9-2.7,9.2-6.3,18.3-8.1,27.8l-2.3-2.9c-.5-2.9-.8-5.8-1.2-8.7-.2-1.2.2-2.5,0-3.7-3.3-10.6-2.9-25.2-6.4-35.4-.6-1.7-1-1.3-1.7-2.1-.2-.2-.4-.5-.6-.6-1-.7-.2-1-2.6-1.2-3.8-.3-9.5-.2-13.3,0-2,0-5.3.6-7.2,1.2h0v.2h-.2ZM606.3,680.2c-.2,2.2-.5,4.1-.6,6.4-.5,12,1.2,24.2,1.7,36.2.8,16.8.9,34.2,2.9,50.7.2,1.7.3,5.3.7,6.6,1.3,4.5,7.1,2.3,10.6,2.7,1.1,0,.6,1.1,1.7,1.3,2.6.3,6.3,0,9,0-.3,1.7.9,1.1,2,1.2h5.2l1-3.2-6.5-100.8c-.6-1.4-1.6-2-3-2.2-7.3-1-17.2.6-24.7.3-.9.7,0,.9,0,.9h0ZM507.8,792.2c-.5-1.6-6.3-1.5-7.7-1.2-.1,0-1.6,1.9-1.6,2v15.4h-5.8v-16.2c-2.9-1.6-6.3-1.6-9.5-.6-.6.3-.2.9-.3,1.2-.3.8-.5.8-.6,2-1,12.7.8,27.1.2,40,0,3.9,10.3,2,10.3,0v-16.5h5.8v16.5c0,2.3,10.2,3.1,10.3-.7-.1-13,.6-26.3.1-39.3,0-1.1.6-2.3-1.2-2v-.6h0ZM520.5,792.2v.6c-1.7,0-1.2.5-1.4,1.5-1.9,8.1-3.3,17.8-4.8,26.2-.4,2.3-2.6,13.8-2.1,15.1.6,1.7,7.5,1.7,8.9,1s1.5-5.5,1.7-7.2c7.6-1,6.6,1.9,8.8,7.4l6.8.7.6-.6v-.6h1.7l-7.7-44c-1-1.4-9.4-1.6-11.2-1.3-1,.2-1,.3-1.4,1.2h.1ZM564,829.8c.3-1.7-.9-1.1-2-1.2-2.4,0-4.8.2-7.2-.6l-.2-34.3-.8-1.6c-3.7.5-8.6-2.7-9.5,2.6.4,12.9-.4,26,0,38.9,0,1.1-.6,2.3,1.2,2v.6c0,.3-.2.9,0,1,3.7,1.2,7.5.5,11.2.6,2.7,0,5.2,1.5,7.8,0,0,0,.5-.5.6-.6.8-1.4,1.3-7-.6-7.5h-.6,0ZM475.3,795.6c-6.8-6.1-14.9-4.2-20.3,2.3-2.6,3.1-2.7,5.5-2.9,9.6-.3,5.8-.9,21.2,2.9,25.2,0,0,.7,0,.9.2,4.8,5,8.5,5.5,15.3,3.3,2.8-.9,3.4-1.4,4.6-4.1.2,0,1,.3,1.2-.4,3.1-9.1,2.3-11.5-8-9.6l-1.8,5.7c-1.1.4-3.5.7-4-.7.3-5.1-.5-10.7-.5-15.7s.2-9.3,1.2-10.1c.8-.6,2-.3,2.7-1.1.6,0,1.7.6,1.9,1.3l.4,5.1,8.6.5c1.4-4.2,1-8.6-2.3-11.5h0ZM577.9,793.9c-2.2-.9-6.7-1.3-8.7.3v42.9c0,.2.9,1.6,1.2,1.7l20.3,1.4v-6.7c.2-.6-.6-1.2-.6-1.4,0-.6,1.7-1.1-1-1.6-2.9-.5-6.5-.6-9.4-.8l-.5-35.6c-.3-.6-.9-.2-1.2-.3h0ZM409.8,798c-.1,0-.6-.2-1,0-.3.3-.4,1.2-.7,1.6-.7,1.1-1,1.3-1.7,2.3-1.6,2.1-2,2.6-2.3,5.5-.6,5.7-.6,18.7,0,24.3.4,3.3,4,8.2,7.3,8.9.4,0,.7-.5.8-.5h.6c-.6,1.5,3.2,1.7,3.8,1.7,4.7,0,11.7-5.1,13.3-9.3,1.9-4.9,2.1-20.9,1.4-26.4-.1-.8-2.2-6.8-2.4-7.1-.3-.3-.9,0-1,0-.2-.2-.3-.4-.6-.6s-.3-.5-.6-.6-.4-.5-.6-.6-.3-.5-.6-.6c-5.6-3-10.5-2-15.7,1.2h.1c0,0,0,.2,0,.2ZM616.8,834.5h-.6c.5-1.6-2.5-1.4-3.4-1.6-2.6-.3-5.1-.3-7.7-.8v-8.7l9.3.3c.8-.6.7-5.8.6-7.1-.4-4.6-8.9-2.3-9.8-3.8v-6.9l10.6,1.2c.6,0,.2-.8.3-1.2v-.6c.9-1.2,1-5.9,0-7,0,0-.9-.5-1.2-.6.3-1.9-.9-1-2-1.2-4.6-.7-11.1-1.7-15.7-1.8-1.2,0-2.2,0-2.9,1.2l.7,44,1.1,1.2,19,1.8c3-.6,2.4-6.3,1.4-8.7h0l.2.3ZM622,798.5h-.6c-1,.6-.6,2.2-.6,3.2,0,13.3,0,26.7,0,40-.3,3.7,10.4,4.6,10.4,2.4v-15.4c.9-.2,1.1,0,1.5.9,1.9,3.5,3.7,14.6,6.6,16.5h.6v.6c1.3,1,8.3,1.9,8.7.2-.2-7.5,0-15,0-22.6,0-1.4-.6-2.6-.6-4,0-4.5.9-14.3-.6-17.7,0-.3,0-.9-.3-1.2l-7.6-1.6c-.2,1-1.4,1-1.4,1v18l-7.2-19.1c-1-1.2-7.3-2.3-9-1.2h.2-.1ZM376.7,799.7c-.8.2-1.6,0-2.3.6v44.6c.8.5,1.6.6,2.5.5,5.2-.4,16.1-1.9,19.5-5.7,3.9-4.3,5.3-18.4-1.7-20.3-1.2-1.4.3-1,1.2-2.3,1.2.3,1.6-1,2-1.8,2.4-5.7,1.3-15.8-6.3-16.8-3.7-.5-11,.3-14.8,1.2h-.1ZM343.1,813.6c-.4,1.2-1,1.4-1.2,3.2-.5,5.2-.6,18.7,0,23.8.3,2.4,1.8,5.1,3.5,6.7.2.2.5.5.6.6.9.4.5,0,.6,0,1.1.5.6-.4,1.7,1.2.1.2-.4.9.4,1.2,3.8,1.4,9.2.6,12.4-1.7,1.8-1.3,5.3-4.9,6.3-6.8,2.4-4.6,2.3-21.5,1.9-27.2-1.4-17.1-20.9-14.7-26.1-.9h0ZM672.4,807.2c-1.3-3.8-8.5-3.9-11.8-3.4-.5,0-3.8.9-3.3,2.2-.2,0-.3.4-.6.6-.6.5-.8.8-1.2,1.2l-.6.6c-2.2,3-2.8,5.2-2.9,9,0,2.2.6,3.9.6,5.7,0,7.8-1.9,18.7,4.6,24.1,6.9,5.7,18,7.4,21.5-2.9.9-2.7,1-12.3.6-15.4,0-.9-.3-.9-.6-1.4,0,0-.4-.5-.6-.6-1.3-1.1-2.2-1.2-3.9-1.6-1.3-.3-7.5-1.2-8.1-.6-1,1-1.1,6.7-.2,7.8.7.8,2.1.5,2.6,1.5.8,1.6,1,7.9-1.2,8.5-2.7.3-3.9-1.2-4.2-3.7-.6-5-.6-19.7,0-24.6,1.7-1.3,4.8-.5,5.4,1.3.5,1.3.2,2.6.5,3.5s9.7,4.8,9.8-1c0-4.5-2.3-8.4-5.9-10.7,0,0-.5,0-.6,0h.1ZM334.4,834.5c5.1-4.2,5.6-17.2,2.1-22-5.7-8-15.9-2.9-23.9-2.1l-1.4,3.6c1,5.3-1.3,42,.2,43.7.2.3.9,0,1,0,0,0-.2.8.1,1,.7.6,6.8-1.6,8-2.2.2,0,.4-.4.6-.6s1.1.3,1.2-.3c.2-4.8-.3-9.7,0-14.4.1-1.7,1-.8,1.7-.3,2.1,4.2,3,8.9,4.7,13.3l9.2-1.3c.8-.5.5-.8.3-1.4-.5-2.8-6.3-14.8-5.3-16.2.3-.5,1.4-.5,1.5-.6h0c0,0,0-.3,0-.3ZM686.9,809c-.9,0-2,0-2.9,0l-.5,44.8c.2.6.8,1.2,1.3,1.6,1,.7,16.9,4.9,18.7,5.1.9,0,1.6-.3,2.4-.5v-9l-11.5-3.3-.7-9.7c1.9,0,8.3,3,9.6,1.2.4-.6,1-8.2-.9-8.8h-.6c.3-1.7-.8-1-1.9-1.3-2.1-.5-4.2-1-6.2-1.6v-6.9c3.1-.6,8.4,2.7,11,1.2.6-.4,1.1-.4,1.1-1.4l-.6-7.8c-.5-.7-13.7-3.4-15.8-3.7-.9-.2-1.8-.6-2.7,0h.2ZM447.5,813c-1.9-1.7-9.3.2-12.1,0-.7,3-2.3,9.3,1.9,9.8,1.2.2,10.1-.5,10.8-.9,1.2-.7,1.2-5.3,1.2-7s-.9-.6-1.2-.9c-.2-.2-.3-.9-.6-1.2h0v.2Z"/>
        <path class="st9" d="M571,666.9"/>
        <g>
          <path class="st4" d="M354.1,671.6c-3.2,7.5-1.4,17-1.7,25.2-1,27.8-3.4,55.7-4.1,83.5-.1,1.2-.2,1.8-1.2,2.6,1.3-30.6,3.2-60.8,4-91.3v-6.4c.1-6-1-9.1,2.9-14.2v.6h.1Z"/>
          <path class="st11" d="M649.8,730.1l.6,1.7v5.2l.6,2.3v4.6c0,1.6-.4,2.8.6,3.5,0,1.7,0,3.5,0,5.2l.6,1.2v5.2c0,1.7-.4,3.2.6,4.1,0,2.4,0,4.6,0,7l-6.4-92.2c.6,2.7,1,6.2,1.2,9,1,14.4,1.3,28.8,2.3,43.2h0Z"/>
          <path class="st4" d="M653.9,778.8h-1.2v-8.1c1.6,1.8.5,4.3.6,6,0,.8.5,1.4.5,2.1h.1Z"/>
          <path class="st4" d="M651,739.4l-.6-2.3c.9.4.5,1.6.6,2.3Z"/>
          <path class="st4" d="M650.4,731.9l-.6-1.7c0,0,1,.9.6,1.7Z"/>
          <path class="st4" d="M652.1,753.9l-.6-1.2s.5,0,.6,1.2Z"/>
          <path class="st1" d="M426.6,686.6l7.2-8.1h26.4c0,.8,0,1.6-.1,2.5-.6,2.8-7.2,9.8-9.1,12.5l-20.1,27.4c-.5,1.3,2.4,5,3.2,6.3,2.6,4.3,5.4,8.5,8.1,12.8l14.5,24.5c1.9,3,5.6,7.4,6.7,10.8.2.6.4,1.1.2,1.7-.7,1-11.5.5-13.6.6-1.4,0-2.7.6-4,.6-2.9,0-11.1.5-13.2,0-1-.3-2.3-2-2.9-2.9-3.3-4.5-6.7-11.1-9.7-16.1-2.7-4.5-5.9-11.2-9-15-.5-.7-.9-1.4-2-1.2-1.2,2.4-3.5,5.1-5.2,7.2-.4.5-1.2.6-1.6,1-1.2,1.4-1.3,3.4-3.7,4.3l-1.3,25.5c-.5.6-4.3,1-5.5,1.2-6.1.9-16.2,2.2-22,2.4-1.1,0-2,0-3-.6-.7-4.9.3-10,.5-14.7.8-22.4,1.2-44.8,2.3-67,.3-7.5.3-15.1,1.2-22.6l30.1-.6c1,.6,0,11.8,0,13.9-.2,7.8-.8,16.1-.6,23.8v1.7l1.7-.3,24.4-31.6h.1Z"/>
          <path class="st7" d="M606.3,680.2h26.7l5.3,81.5c.4,6.3,1.9,14.2,1.8,20.3,0,4.3-4.2,2.1-7.6,2-2.8,0-6.4.3-9,0-1.1,0-.6-1.1-1.7-1.3-3.5-.5-9.4,1.8-10.6-2.7-.3-1.2-.5-4.8-.7-6.6l-4.6-87c0-2.3.4-4.2.6-6.4h0l-.2.2Z"/>
          <path class="st4" d="M606.3,680.2s-1-.2,0-.9c7.5.2,17.4-1.3,24.7-.3,1.5.2,2.4.8,3,2.2l6.5,100.8-1,3.2h-5.2c-1.1,0-2.3.6-2-1.2,3.4,0,7.5,2.3,7.6-2,0-6.1-1.4-14-1.8-20.3l-5.3-81.4h-26.7,0c0,0,.1,0,.1,0Z"/>
          <path class="st4" d="M610.4,773.6c-2-16.5-2-34-2.9-50.7-.6-12-2.2-24.2-1.7-36.2l4.6,87h0Z"/>
          <path class="st4" d="M369.8,702.3c-1,22.2-1.6,44.6-2.3,67-.2,4.7-1.2,9.8-.5,14.7.9.5,1.9.6,3,.6,5.9,0,15.9-1.5,22-2.4,1.1-.2,4.9-.7,5.5-1.2l1.3-25.5c2.3-.9,2.5-2.9,3.7-4.3.3-.3,1.1-.5,1.6-1,1.8-2.1,4.1-4.8,5.2-7.2,1-.2,1.4.5,2,1.2,3.1,3.8,6.3,10.6,9,15h-.6c-2.4-3.8-4.8-8.5-7.4-12.1-.5-.6-2.1-3.4-2.8-3l-9.9,12.1c-.7,5.3,0,10.7-.3,15.9,0,1.5-.6,8.1-1.1,8.8-.4.6-2.5,1.8-3.2,2-5.9,1.2-16.5,2-22.6,2.3-1.7,0-3.7,0-5.4,0-1.6-2-1.4-4.1-1.3-6.6.9-25.4,2.3-50.9,3.5-76.2h.7-.1Z"/>
          <path class="st11" d="M442.2,740c1.2,1.9,3.3,4.1,4.5,6.2,1.7,5,17.8,26.7,17.5,30-.3,2.8-5.1,1.9-7.2,2.7l-23.7.4c-1.6-.3-3.7-3.3-4.6-4.6-3.3-4.6-6.1-10.6-9.2-15.5h.6c3,4.9,6.4,11.6,9.7,16.1.6.9,1.9,2.6,2.9,2.9,2.2.6,10.4.2,13.2,0,1.4,0,2.6-.6,4-.6,2.1,0,12.9.5,13.6-.6.2-.6,0-1.2-.2-1.7-1.1-3.4-4.8-7.9-6.7-10.8l-14.5-24.5h.1Z"/>
          <path class="st4" d="M426.6,686.6c.9-1.9,6.3-8.9,7.9-9.1,3.2.2,7.1.5,10.4.5s15.9-2.6,16.4,2.1c-8.9,13.9-19.5,26.8-29.2,40.2l-.2,1.9,2.2,5.1c-.8-1.3-3.7-5-3.2-6.3l20.1-27.4c2-2.7,8.5-9.7,9.1-12.5.2-.8.2-1.6.1-2.5h-26.4l-7.2,8.1h0Z"/>
          <path class="st11" d="M401.1,679.1l-30.1.6c-.9,7.4-.9,15.1-1.2,22.6h-.6c.3-7,0-14.1.6-21.2.4-2.1,2.5-2.5,4.3-2.7,7.1-.6,16.5,0,23.8,0s2.6-.3,3.2.6h0Z"/>
          <path class="st11" d="M401.1,693c2.3-.3.6,3.7.6,4.9-.2,5.6.2,11.2,0,16.9,0,1.1.6,2.3-1.2,2-.2-7.7.4-15.9.6-23.8h0Z"/>
          <g>
            <path class="st7" d="M494.4,678.5c.2,0,.4.4.6.6l8.1,41.2c.4,2.9.6,5.8,1.2,8.7.4,2.3,1,4.6,1.2,7l.9-.6c3-10.4,5.9-20.9,9-31.3,2.4-8.2,4.8-16.5,7.1-24.8.9-1,15.8-.9,18.2-.8.6,0,1,.2,1.4.6l13.9,49.3c.4,2.2.7,4.5,1.2,6.7.2.9-.4,1,1.2.9.7-4.8,2.1-9.5,2.8-14.3.2-1,0-2.2,0-3.1v-.6c1-.6,1-1.6,1.2-2.6,1-4.5,1.6-9.3,2.3-13.6v-.6c2.6-3.1,3.2-19.8,5.6-21.4,2-1.4,4.2,0,6.3,0s15.6-.6,16.9.5c.4.3.6,1.1.8,1.6l-20.2,95.3c0,0-.4.4-.6.6-1.6.8-3.8.7-5.6.6-1,0-2-.6-2.3-.6h-11.6c-.2,0-1-.5-1.7-.6-2-.2-3.9.6-5.5-1.2l-.6-.6-13.9-53.9c-.9,0-.9.9-1.1,1.4-2.8,7.8-4.8,18.1-7,26.4-2.3,8.7-4.8,17.4-7,26.1-.6,1.1-.8,1.1-2,1.2-5.5.5-11.8-.2-17.5,0-2.6,0-5.5,1.8-7.8-.6-1.2-2.4-1.3-6.7-2-9.3-.2-.8-.8-1.4-.9-1.7.6-4.9-1.7-9.4-2.9-13.9-3.9-21.6-10.8-45.6-13.7-67.1-.2-1.4-.7-3.6.4-4.8.3,0,.5-.6.6-.6,7.4-.7,15.7.5,23.2,0h-.2Z"/>
            <path class="st4" d="M573.9,777.1l20.2-95.3c-.2-.5-.3-1.3-.8-1.6-1.3-1.1-14-.5-16.9-.5s-4.3-1.4-6.3,0c-2.3,1.6-3,18.3-5.6,21.4.9-5.1,1.9-15.5,3.7-19.8.7-1.7,2.5-2.6,4.2-2.8,4-.5,14.6-.5,18.6,0,6.6.8,2.7,10,1.9,14.6-5.5,27.6-12.6,54.9-17.8,82.5.2.9-1,1.3-1.2,1.4h0Z"/>
            <path class="st4" d="M546,775.3c0-.2-1.3-.6-1.2-1.4l-12.8-49.6c-.8-.2-.6.6-.9,1.2-2.5,7-4.7,16.5-6.7,23.8h-.6c2.2-8.2,4.1-18.6,7-26.4.2-.6.2-1.4,1.1-1.4l13.9,53.9h.2Z"/>
            <path class="st4" d="M470.7,679.1c-1.1,1.2-.6,3.3-.4,4.8,3,21.5,9.9,45.6,13.7,67.1-5.8-22.5-9.7-45.5-15-68.2-.3-1.7-.1-3.2,1.4-4.3.3,0,.2.6.3.6h0Z"/>
            <path class="st4" d="M555.9,727.8v.6l-13.9-49.3h.6c1.6,1.4,1.5,2.6,2.1,4.5,4.2,13.2,8.6,30.6,11.2,44.2h0Z"/>
            <path class="st11" d="M503.1,720.3l-8.1-41.2c.7.8,1.2.3,1.7,2.1,3.4,10.2,3.1,24.8,6.4,35.4.3,1.2-.1,2.6,0,3.7h0Z"/>
            <path class="st4" d="M515.3,704c-3,10.4-6,20.9-9,31.3l-.9.6c-.2-2.3-.8-4.6-1.2-7l2.3,2.9c1.9-9.5,5.4-18.6,8.1-27.8h.7Z"/>
            <path class="st4" d="M517,775.9c-1.1,1.4-2,1.6-3.8,1.7-2.6.3-21,.3-22.3-.3-.5-.2-.9-.9-1.2-1.4,2.4,2.3,5.2.6,7.8.6,5.6,0,12,.5,17.5,0,1.2,0,1.4,0,2-1.2v.6h0Z"/>
            <path class="st4" d="M573.3,777.7c-.2.2.4,1.6-2.1,1.7-4.8-.5-9.7-.9-14.4-1.2-2.9-.2-7.6.9-9.8-1.1-.6-.5-.3-1.1-.4-1.2,1.6,1.7,3.5.9,5.5,1.2.8,0,1.6.6,1.7.6h11.6c.2,0,1.3.6,2.3.6,1.7,0,3.9.2,5.6-.6h0Z"/>
            <path class="st11" d="M494.4,678.5c-7.5.5-15.8-.7-23.2,0,2-.6,5.2-1,7.2-1.2,3.9-.2,9.6-.3,13.3,0,2.3.2,1.6.5,2.6,1.2h.1Z"/>
            <path class="st11" d="M517,775.9v-.6c2.2-8.7,4.6-17.4,7-26.1h.6c-1.3,5-2.2,10.2-3.7,15.2-.9,2.9-2.2,9.4-3.9,11.5h0Z"/>
            <path class="st11" d="M561.1,718.5c-.2.9,0,2,0,3.1-.8,4.8-2.1,9.5-2.8,14.3-1.5,0-.9,0-1.2-.9-.5-2.2-.8-4.5-1.2-6.7v-.6c1.4.9.2,4.5,2.3,4.1.8-4.5,1.1-9.2,2.9-13.3h0Z"/>
            <path class="st4" d="M561.1,717.9c.9-5.5,1.4-11.1,3.5-16.2-.7,4.3-1.2,9.1-2.3,13.6-.2,1-.2,2-1.2,2.6h0Z"/>
            <path class="st11" d="M542.6,679.1h-.6c-.3-.5-.9-.6-1.4-.6-2.4-.2-17.2-.2-18.2.8-2.3,8.2-4.7,16.6-7.1,24.8h-.6c2-7,3.7-17.5,6.6-23.9.6-1.4,1.4-2,3-2.2,2-.3,16.6-.2,17.7.3.4.2.4.7.6.9h0Z"/>
            <path class="st11" d="M486.9,764.9c-1.2-4.7-2-9.2-2.9-13.9,1.2,4.5,3.5,9,2.9,13.9Z"/>
          </g>
        </g>
        <g>
          <path class="st4" d="M580.8,855.4v-.6h0"/>
          <path class="st4" d="M710.7,795.6c-.6,1-2,.5-2.9.3-18-3.6-35.6-9.3-53.5-13-.7,0-.3-.8-.3-1.2l56.8,13.9h0Z"/>
          <path class="st4" d="M720.6,836.8h-.6c.5-8.7,2.6-22.2,1-30.3-.4-2.2-2-3.5-2.2-5.6,2.1,2.6,3.2,4.9,3.5,8.4.8,9.2-1.2,18.6-1.7,27.5h0Z"/>
          <path class="st11" d="M718.8,859.4c.7-7.4.8-15.2,1.2-22.6h.6c-.4,6.2,0,12.5-.6,18.8,0,1.2-.3,2.8-1.2,3.8Z"/>
          <path class="st14" d="M447.5,813c.2.2.3.9.6,1.2v7l-12.8.6v-7.2c.1-.7.9-.2,1.2-.3v6.7c3.6.8,7.3-.9,11-.3v-6.4h-11c3.4-1.3,7.5,0,11-1.2h0Z"/>
          <path class="st13" d="M447.5,813c-3.5,1-7.7-.2-11,1.2-.3,0-1-.3-1.2.3v7.2l12.8-.6v-7c.3.3,1.2-.7,1.2.9s0,6.3-1.2,7c-.7.4-9.5,1-10.8.9-4.2-.6-2.6-6.8-1.9-9.8,2.8,0,10.3-1.8,12.1,0h0Z"/>
          <path class="st13" d="M538.5,837.4l.6-.6-.6.6Z"/>
          <g>
            <path class="st8" d="M686.9,809c1.9.3,16.8,3.7,17.4,4.3,1.3,1.3.2,6.4.6,8.4l-11.6-2.3v9.3c2.7.4,6.2.8,8.7,1.7h.6c.9.6.9,7.8,0,8.5l-9.3-2.1.6,11.6c0,0-1.3.8-1.7-.4l.3-11.2c1.2-1.6,7.7,1.2,9.6,1.2v-7l-9.9-2.3v-9.6c0-.6,1.3-.9,2-.9,1.4,0,9.6,2.9,10.2,2.3l-.6-6.9-18.5-4.1v43.8c5.7,2.8,12.9,3.5,19.1,5.5v-7.5c-2.8,0-5.5-.7-8.1-1.4-1-.3-2,0-1.7-1.4,1.6.3,10.6,2.4,10.9,3,0,1.5.8,8.2-.8,8.6l-19.9-5.6-.6-45.3c.9,0,2,0,2.9,0h0l-.2-.2Z"/>
            <path class="st13" d="M684,809l.6,45.3,19.9,5.6c1.6-.4.8-7.1.8-8.6-.4-.6-9.3-2.7-10.9-3h-.6l-.6-11.6,9.3,2.1c.9-.7.9-7.8,0-8.5,1.9.5,1.3,8.2.9,8.8-1.3,1.8-7.7-1-9.6-1.2l.7,9.7,11.5,3.3v9c-.9,0-1.5.5-2.4.5-1.8,0-17.7-4.3-18.7-5.1-.5-.3-1.2-1-1.3-1.6l.5-44.8h-.1Z"/>
            <path class="st12" d="M686.9,809c.9-.7,1.7-.3,2.7,0,2.1.3,15.3,3,15.8,3.7l.6,7.8c0,1-.5,1-1.1,1.4-.3-2,.7-7.1-.6-8.4-1.3-1.3-15.5-4.1-17.4-4.3h0Z"/>
            <path class="st13" d="M704.9,821.7c-2.6,1.6-7.8-1.7-11-1.2v6.9c2.1.7,4.2,1.1,6.3,1.6,1,.3,2.2-.3,1.9,1.3-2.5-1-6-1.3-8.7-1.7v-9.3l11.6,2.3h0Z"/>
            <path class="st3" d="M694.5,848.4c-.3,1.6.8,1.2,1.7,1.4,2.6.8,5.4,1.6,8.1,1.4v7.5c-6.3-2-13.4-2.7-19.1-5.5v-43.8l18.5,4.1.6,6.9c-.6.6-8.8-2.2-10.2-2.3-.7,0-2,.3-2,.9v9.6l9.9,2.3v7c-1.9,0-8.5-2.8-9.6-1.2l-.3,11.2c.4,1.1,1.7.3,1.7.4h.7Z"/>
          </g>
          <g>
            <path class="st13" d="M545.5,835.6c-1.7.3-1.1-.9-1.2-2-.5-12.9.3-26,0-38.9.9-5.3,5.8-2.1,9.5-2.6l.8,1.6.2,34.3c2.4.9,4.8.5,7.2.6,1.1,0,2.3-.6,2,1.2-2.6-.3-5.5.2-8.1,0h-.6c-.2,0-.5-.8-1.2-.6v-1.7c-.2-2.8,0-5.9,0-8.7v-19.1c0-1.7.5-5.4-.8-6.4-1.4-.8-7.3-1.2-7.8.4.5,13.7-.9,28.3,0,42h0,0Z"/>
            <path class="st14" d="M554.2,799.7c-.9,0-.9,1.7,0,1.7v8.1c-.9.6-.9,2.9,0,3.5v.6l-.6.3.6.3v2.3c-.9.2-.9,2.1,0,2.3,0,2.8-.2,5.9,0,8.7-1.7.3-1.1-.9-1.2-2-.3-10.5.3-21.1,0-31.6l-7-.6v21.7c.9,4.4-.2,9.5,0,13.9,0,2,1.1,4.4.6,6.7l17.4,1.2v-6.4c-3,0-5.3.3-8.1-.6,2.6.2,5.6-.3,8.1,0h.6c1.1,2.3.4,5,.6,7.5,0,0-.5.5-.6.6l-19.1-1.7v-.6c-.8-13.7.5-28.2,0-42,.5-1.6,6.4-1.2,7.8-.4,1.3,1,.8,4.7.8,6.4h.1Z"/>
            <path class="st13" d="M564.6,838c-2.7,1.5-5.2,0-7.8,0-3.8,0-7.7.5-11.2-.6-.2-.2,0-.8,0-1l19.1,1.7h0Z"/>
            <path class="st13" d="M565.2,837.4c-.2-2.5.5-5.3-.6-7.5,1.9.6,1.4,6.1.6,7.5Z"/>
            <path class="st3" d="M555.9,829.8c2.8.9,5.2.6,8.1.6v6.4l-17.4-1.2c.5-2.3-.5-4.6-.6-6.7-.2-4.3,1-9.5,0-13.9v-21.7l7,.6c.2,10.5-.3,21.1,0,31.6,0,1.1-.6,2.3,1.2,2v1.7l-.6.6h2.3Z"/>
            <path class="st3" d="M554.2,813c-.9-.6-.9-2.9,0-3.5v3.5Z"/>
            <path class="st3" d="M554.2,818.8c-.9-.2-.9-2.1,0-2.3v2.3Z"/>
            <path class="st14" d="M555.3,829.8h-1.7l.6-.6c.6-.2.9.5,1.2.6h0Z"/>
            <path class="st3" d="M554.2,801.4c-.9,0-.9-1.7,0-1.7v1.7Z"/>
            <path class="st3" d="M554.2,814.2l-.6-.3.6-.3v.6Z"/>
          </g>
          <g>
            <path class="st14" d="M507.8,792.2v43.5l-8.5-.5-.8-18s.4-.6.8-.6c.6.3.8.8.9,1.4.5,2.6-.6,16.5,0,17.1l7-.6v-41.7h-7v15.4c.2,1.2-1,.8-1.2.8l.2-16.3,8.5-.5h.1Z"/>
            <path class="st13" d="M482.8,792.7v42c.7,1.9,7,.6,8.7.9v-18.6h7l.8,18,8.5.5v-42.9c1.7-.3,1.1.9,1.2,2,.5,13-.2,26.3-.1,39.3-.1,3.8-10.3,3-10.3.7v-16.5h-5.8v16.5c0,1.9-10.3,3.8-10.3,0,.6-12.9-1.2-27.3-.2-40,.1-1.2.3-1.2.6-2h0v.2Z"/>
            <path class="st12" d="M482.8,792.7c.1-.3-.2-.9.3-1.2,3.1-1,6.6-.9,9.5.6v16.2h5.8v-15.4c0,0,1.4-2,1.6-2,1.4-.3,7.2-.4,7.7,1.2l-8.5.5-.2,16.3h-7.5v-16.8l-8.7.6h0Z"/>
            <path class="st3" d="M491.5,817.1l-.6.9v16.2c-.6,1.7-5.3.6-7,.9v-42.3h7v16.5c.6,1.3,7.7,1,8,.8s0-.9.1-1,1.4.3,1.2-.8v-15.4h6.9v41.7l-7,.6c-.6-.6.5-14.5,0-17.1-.1-.7-.3-1.1-.9-1.4-.4,0-.8.6-.8.6h-7v-.2Z"/>
            <path class="st8" d="M482.8,792.7l8.7-.6v16.8h7.5s.2.8-.1,1c-.3.3-7.4.6-8-.8v-16.5h-7v42.3c1.6-.3,6.3.8,6.9-.9v-16.2l.6-.9v18.6c-1.7-.3-8,.9-8.6-.9v-42h0Z"/>
          </g>
          <g>
            <path class="st8" d="M615,798c.2,0,1,.5,1.2.6,0,2.3,0,4.6,0,7v.6l-11.6-1.2c1.4-1.4,8.3.2,10.4.6v-7l-19.1-1.7.6,42.9,19.1,1.7v-6l-11.9-2-.2-11.1h1.2v11l11.6,1.2h.6c-.3,1.7.9,7.5-.9,8.1-6.7-1.3-14.3-.5-20.5-3.1v-43.2c1.8,0,3.7,0,5.5,0,3.1.2,11.6.9,14.2,1.7h-.2Z"/>
            <path class="st13" d="M616.8,834.5c.9,2.4,1.6,8.1-1.4,8.7l-19-1.8-1.1-1.2-.7-44c.7-1.2,1.7-1.2,2.9-1.2,4.5,0,11.1,1.1,15.7,1.8,1.1.2,2.4-.8,2,1.2-2.6-.9-11.1-1.6-14.2-1.7-1.9,0-3.7,0-5.5,0v43.2c6.2,2.6,13.9,1.9,20.5,3.1,1.8-.6.6-6.4.9-8.1h-.1Z"/>
            <path class="st13" d="M616.2,806.1c0,.4.3,1.2-.3,1.2l-10.7-1.2v6.9c1,1.4,9.5-.9,9.9,3.8,0,1.2.2,6.5-.6,7.1l-9.3-.3v8.7c2.6.5,5.1.5,7.7.8.9,0,3.8,0,3.4,1.6l-11.6-1.2v-11h.6c2.5,0,5,.6,7.5.9l1.1-.7-.2-7.2c-.3-.5-5-1-6.1-1.1s-2.4,0-3.5,0c.4-2.1-.8-7.9.6-9.3l11.6,1.2h0v-.2Z"/>
            <path class="st13" d="M616.2,805.5c0-2.3,0-4.6,0-7,1,1,.9,5.7,0,7Z"/>
            <path class="st3" d="M604.6,822.3h-1.2l.2,11.1,11.9,2v6l-19.2-1.7-.6-42.9,19.1,1.7v7c-2.1-.3-9-2-10.4-.6s-.2,7.1-.6,9.3c1.2,0,2.4,0,3.5,0-1,1.6-.5,1,.9,1.2,1.6.2,3.3-.2,4.9.7v6.3c-.2.3-6.8-1.7-8.1,0h-.6.2Z"/>
            <path class="st14" d="M605.2,822.3c1.2-1.7,7.8.3,8.1,0v-6.3c-1.6-.9-3.3-.5-4.9-.7-1.3,0-1.9.5-.9-1.2,1.2,0,5.8.6,6.1,1.1l.2,7.2-1.1.7c-2.5-.3-5-.9-7.5-.9h0Z"/>
          </g>
          <g>
            <path class="st8" d="M657.4,806.1c2.5-1.5,4.3-2,7.2-1.7,3.5.3,5.1,1.3,7.8,2.9,0,0,.5,0,.6,0,2.6,2.7,4.9,7,5.2,10.8.3,5-5.7.7-8.6,1.3.4-1.6-.6-6-2.3-6.4,2.9.3,2.7,3.7,3.5,5.7l6.3,1.2c.9-6.6-3.2-13-9.8-14.2-9.4-1.7-12.8,2.1-13.4,11-.4,5.1,0,16.2.6,21.4.4,4.1,2.7,8.3,6.4,10.4,3.7,2.1,8.6,2.9,12.4,1.4,6.8-2.6,3.7-16.9,4.3-22.6l-10.4-1.7v5.7l2.8.8c.2.3,0,.8,0,1l-3.5-.6v-7.2l11.6,1.4c.2,0,.5.5.6.6v16.8c-3.5,10.3-14.6,8.6-21.5,2.9-.9-1.7-2.1-3.1-2.8-5-1.9-5.7-1.9-21.4-1.3-27.7.2-2.1.9-4.1,1.7-6.1l.6-.6,1.2-1.2c.2-.2.4-.5.6-.6h0c0,0,0,0,0,0v.2Z"/>
            <path class="st12" d="M663.7,813c0,.3-.5.8-.6,1.2-.6,4.9-.6,19.7,0,24.6.6,5,1.6,4,4.2,3.7,2.3-.6,1.9-6.8,1.2-8.5-.5-1-1.9-.7-2.6-1.5-.9-1-.8-6.7.2-7.8.6-.6,6.8.3,8.1.6,1.7.3,2.6.5,3.9,1.6l-11.7-1.4v7.2l3.5.6c.4,3.9.9,12.8-5.3,9.8,0,0-2.1-1.6-2.2-1.7-.9-1.4-.8-21.5-.6-24.6,0-1.3.2-2.5.6-3.8h1.2c0,0,0,0,0,0Z"/>
            <path class="st13" d="M655,808.4c-.9,2-1.5,3.9-1.7,6.1-.6,6.3-.6,22,1.3,27.7.7,2,1.9,3.3,2.8,5-6.5-5.5-4.6-16.2-4.6-24.1s-.6-3.5-.6-5.7c0-3.8.7-6.1,2.9-9h-.1Z"/>
            <path class="st13" d="M678.8,844.3v-16.8c.3.5.5.5.6,1.4.3,3.1.3,12.8-.6,15.4h0Z"/>
            <path class="st13" d="M672.4,807.2c-2.7-1.6-4.3-2.6-7.8-2.9-3-.2-4.8.2-7.2,1.7-.5-1.3,2.8-2.1,3.3-2.2,3.2-.5,10.4-.4,11.8,3.4h0Z"/>
            <path class="st13" d="M673,807.2c3.5,2.4,5.9,6.3,5.9,10.7s-9.5,2-9.8,1,0-2.3-.5-3.5c-.6-1.8-3.8-2.6-5.4-1.3,0-.3.5-.8.6-1.2.8,0,2.8-.2,3.5,0,1.7.3,2.7,4.8,2.3,6.4,3-.6,9,3.7,8.6-1.3-.3-3.8-2.6-8.1-5.2-10.8h0Z"/>
            <path class="st13" d="M655.6,807.8c.4-.4.5-.7,1.2-1.2l-1.2,1.2Z"/>
            <path class="st3" d="M670.1,833.3c0-.3.2-.8,0-1l-2.8-.8v-5.7l10.4,1.7c-.7,5.7,2.5,20.1-4.3,22.6-3.8,1.4-8.9.5-12.4-1.4-3.5-2-5.9-6.4-6.4-10.4-.5-5.2-1-16.3-.6-21.4.6-8.9,3.9-12.8,13.4-11,6.6,1.2,10.7,7.7,9.8,14.2l-6.3-1.2c-.8-2-.6-5.3-3.5-5.7-.7-.2-2.7,0-3.5,0h-1.2c-1,.6-1.1,1.6-1.2,2.6-.5,6.4-.5,16.8,0,23.3,0,1.1,0,2.1,1.2,2.6,0,0,2.1,1.6,2.2,1.7,6.3,3,5.7-5.9,5.3-9.8h0c0,0,0-.3,0-.3Z"/>
            <path class="st14" d="M662.6,841.4c-1.3-.4-1.1-1.5-1.2-2.6-.5-6.5-.5-16.8,0-23.3,0-1,.2-2,1.2-2.6-.4,1.3-.5,2.4-.6,3.8-.2,3.2-.3,23.2.6,24.6h0Z"/>
          </g>
          <g>
            <path class="st12" d="M577.9,793.9v.6l-7.5-.6v44.1c.7,0,1.6,0,2.3,0,5.3,1.1,11.2.9,16.8,1.7l.6-7.5c0,.2.8.9.6,1.4v6.7l-20.3-1.4c-.3-.2-1.2-1.6-1.2-1.7v-42.9c2-1.6,6.5-1.2,8.7-.3h0Z"/>
            <path class="st13" d="M577.9,793.9c.3,0,.9-.2,1.2.3l.5,35.6c3,0,6.6.2,9.4.8,2.7.5.9,1,1,1.6l-1-1.2-10-.6v-26.7c0-1.3.4-3.2-.6-4.1,0-1.7.5-3.8-.6-5.2v-.6h0Z"/>
            <path class="st3" d="M572.7,838h2.3v-.6h-4.1v-42.3h7v35.4c1,0,.6-1.3.6-2,.3-6.7,0-13.6,0-20.3,0-1-.3-2.6.6-3.2v25.5l10,.6,1,1.2-.6,7.5c-5.5-.8-11.4-.6-16.8-1.7h0Z"/>
            <path class="st14" d="M577.9,794.5c1,1.4.6,3.5.6,5.2s-.5,3.2.6,4.1v1.2c-1,.6-.6,2.2-.6,3.2,0,6.7.3,13.6,0,20.3,0,.7.5,2.1-.6,2v-35.4h-7v42.3h4.1v.6h-2.3c-.7,0-1.6,0-2.3,0v-44.1l7.5.6h0Z"/>
            <path class="st3" d="M579.1,803.8c-1-.8-.6-2.8-.6-4.1,1,.8.6,2.8.6,4.1Z"/>
          </g>
          <path class="st3" d="M436.4,814.2h11v6.4c-3.8-.6-7.4,1.1-11,.3v-6.7h0Z"/>
          <g>
            <path class="st8" d="M475.3,795.6c1.9,3,2.9,6.8,2.1,10.5l-8.5.5-.4-5.1c-.2-.6-1.4-1.2-1.9-1.3-.6,0-3.2.3-3.5.6s-1.1,3.2-1.2,3.8c-.5,4.8-.4,15.4,0,20.4.1,1.3.2,2.1,1.2,3.1,0,0-.3.5-.6.3l-.5-.6c-1.8-3.2-.5-5.1-.6-8.1-.1-3.4-.9-7.6-.7-11,0-1.7.6-6.6,1.4-7.7.2-.2.9,0,1-.2.2-.2-.2-1.7,2.1-1.7,3.9,0,5.6,3.5,4.9,7l6.4-.6c2.8-14.6-18.2-17.1-21.7-4.1-1.4,5.2-1.6,22.7,0,27.8,2.3,7.7,10.5,7.9,17.1,5.8-.2.2-.3.9-.6,1.2-6.7,2.1-10.5,1.7-15.3-3.3-.3-.3-.9,0-.9-.2-1.6-3.1-1.6-5.3-1.7-8.7v-.6c-.1-3.1,0-6.2,0-9.3v-6.4c.2-3.6-.2-6.6,1.7-9.9,5.4-6.5,13.5-8.4,20.3-2.3h0Z"/>
            <path class="st13" d="M466.6,800.3c-.6.8-1.9.5-2.7,1.1-1,.8-1.2,8.2-1.2,10.1,0,5,.7,10.6.5,15.7.5,1.4,3,1.1,4,.7l1.8-5.7c10.3-1.9,11,.5,8,9.6-.2.7-.9.3-1.2.4-1.2,2.7-1.9,3.2-4.6,4.1.2-.3.3-.9.6-1.2,1.3-1.3,2.6-2,4.1-2.9.9-2,2.3-6.8,1.7-8.9l-.9-.9-7.2.2c-1.6,1.3,1.4,7.8-6.4,5.6-.9-1-1.1-1.8-1.2-3.1-.4-4.9-.5-15.5,0-20.4,0-.6,1-3.6,1.2-3.8.3-.3,2.8-.6,3.5-.6h0Z"/>
            <path class="st13" d="M453.3,807.8c-.9.2-.9,2.1,0,2.3v1.2c-.9.4-.9,2.5,0,2.9,0,3.1-.1,6.2,0,9.3l-.6.3.6.3c.2,3.4.2,5.6,1.7,8.7-3.9-4.1-3.3-19.5-2.9-25.2.2-4.1.3-6.4,2.9-9.6-1.9,3.3-1.6,6.3-1.7,9.9h0Z"/>
            <path class="st13" d="M475.3,795.6c3.3,3,3.7,7.4,2.3,11.5l-8.6-.5,8.5-.5c.9-3.7-.2-7.4-2.1-10.5h0Z"/>
            <path class="st5" d="M471.8,835.1c-6.6,2.1-14.8,1.9-17.1-5.8-1.6-5.1-1.4-22.6,0-27.8,3.5-13,24.5-10.6,21.7,4.1l-6.4.6c.6-3.5-1-7-4.9-7s-1.9,1.5-2.1,1.7c0,0-.8,0-1,.2-.8,1-1.3,6-1.4,7.7-.2,3.4.5,7.6.7,11,.1,3-1.2,4.9.6,8.1l.5.6c.3.2.5-.3.6-.3,7.8,2.2,4.7-4.3,6.4-5.6l7.2-.2.9.9c.7,2.1-.7,6.8-1.7,8.9-1.5.9-2.8,1.6-4.1,2.9h0Z"/>
            <path class="st12" d="M453.3,814.2c-.9-.4-.9-2.5,0-2.9v2.9Z"/>
            <path class="st12" d="M453.3,810.1c-.9-.2-.9-2.1,0-2.3v2.3Z"/>
            <path class="st12" d="M453.3,824.1l-.6-.3.6-.3v.6Z"/>
          </g>
          <g>
            <path class="st8" d="M647.5,802.6v44.6c-2.3,0-4.6-.3-7-.6,0-.2-.3-.5-.6-.6h-.6l-5.8-17.4,6.1,16.2,7.2,1.7-.6-44.1-6.4-.6c-.8.8,1.2,18.8-.6,21.5l-.5-21.6,1.3-1,7.2,1.7h0l.3.2Z"/>
            <path class="st12" d="M622,817.1c0,8.7-.3,17.5.3,26.2l8.3,1.1-.6-23.2,3.5,7.5,5.8,17.4c-2.9-1.9-4.8-13-6.6-16.5-.4-.8-.6-1-1.5-.9v15.4c0,2.3-10.7,1.3-10.4-2.4,0-13.3-.2-26.7,0-40,0-1-.3-2.6.6-3.2l.6,18.6h0Z"/>
            <path class="st13" d="M647.5,802.6c1.4,3.4.4,13.2.6,17.7,0,1.4.6,2.6.6,4,0,7.5-.2,15,0,22.6-.4,1.6-7.5.8-8.7-.2h.6c2.3.2,4.6.6,7,.6v-44.6h0Z"/>
            <path class="st8" d="M622,798.5l8.7,1.2c.2.8,0,1.6,0,2.3-1.6-2.6-5.9-1.9-8.7-2.3.6,1,.6,1.8.6,2.9-1,4.5-.6,9.8-.6,14.5l-.6-18.6h.6Z"/>
            <path class="st12" d="M622,798.5c1.6-1.1,7.9,0,9,1.2l7.2,19.1v-18c0,0,1.3,0,1.4-1l7.6,1.6c.3.3.2.9.3,1.2l-7.2-1.7-1.3,1,.5,21.6c0,0,0,.7-.6.6,0-1.2-.7-2-1.2-2.9-1.3-5.7-4-11.1-5.6-16.7-.3-1,.4-2.2-1.3-1.9v-.6c0-.8,0-1.6,0-2.3l-8.7-1.2h-.1Z"/>
            <path class="st12" d="M640.6,846.7h-.6v-.6c.2,0,.5.3.6.6Z"/>
            <path class="st3" d="M630.7,802v.6c.9,5,4.6,14.2,7,18.6.5.9,1.2,1.7,1.2,2.9.6,0,.5-.5.6-.6,1.7-2.7-.2-20.7.6-21.5l6.4.6.6,44.1-7.2-1.7-6.1-16.2-3.5-7.5-.6,22.6c-1.7-.8-6.2,0-6.8-2.1-.4-13,.2-26,0-39,0-1.1,0-1.9-.6-2.9,2.8.4,7.1-.3,8.7,2.3h0l-.2-.2Z"/>
            <path class="st14" d="M622.6,802.6c.3,13-.3,26,0,39,.7,2,5.1,1.3,6.8,2.1l.6-22.6.6,23.2-8.3-1.1c-.6-8.7-.3-17.5-.3-26.2s-.5-10,.6-14.5h0Z"/>
            <path class="st8" d="M630.7,802.6c1.7-.3,1,.9,1.3,1.9,1.7,5.7,4.3,11,5.6,16.7-2.3-4.3-6.1-13.6-7-18.6h.1Z"/>
          </g>
          <g>
            <path class="st3" d="M376.7,800.3c6.5.5,17.9-4.8,20.7,3.9,1.4,4.5,1,9-1.6,12.9-.9,1.3-2.3.9-1.2,2.3l-.6.5c7,.8,5.2,16.4,1.7,19.8-4,3.8-14.9,3.8-20.3,4.6v-42.6l1.2-1.4h0ZM383.1,807.2v9.3c6.1.5,7.8-1.2,6.9-7.2-.6-4.1-3.9-2-6.9-2h0ZM389.5,833.9s1,.3,1.2-.4,0-7.8-.1-8.2c-2.4-2.2-4.6-.5-7.4-.7v11.6c1.6,0,4.1,0,5.4-.7,1.1-.5.8-1.4,1-1.6h-.1Z"/>
            <path class="st8" d="M376.7,799.7v.6l-1.2,1.4v42.6c5.5-.8,16.4-.8,20.4-4.6h.6c-3.5,3.8-14.3,5.4-19.5,5.7-.9,0-1.7,0-2.5-.5v-44.6c.7-.6,1.6-.4,2.3-.6h0Z"/>
            <path class="st13" d="M374.4,844.9v-44.6,44.6Z"/>
            <path class="st14" d="M376.7,799.7c3.8-.8,11.1-1.6,14.8-1.2,7.6.9,8.8,11,6.3,16.8-.3.8-.8,2.1-2,1.8,2.6-3.9,3-8.4,1.6-12.9-2.8-8.7-14.2-3.5-20.7-3.9v-.6h0Z"/>
            <path class="st14" d="M396.4,839.7h-.6c3.5-3.3,5.3-19-1.7-19.8l.6-.5c7,1.9,5.7,15.9,1.7,20.3Z"/>
            <path class="st12" d="M383.1,807.2c3,0,6.3-2.1,6.9,2,.9,6-.8,7.8-6.9,7.2v-9.3h0ZM384.3,807.8v8.1l4-.6c.8-1.3,1.2-6.4.1-7.2l-4.1-.2h0Z"/>
            <path class="st12" d="M389.5,833.9c-.2.2.1,1-1,1.6-1.3.7-3.9.7-5.4.7v-11.6c2.8.2,5-1.5,7.4.7.2.4.3,7.5.1,8.2-.2.6-1.1.3-1.2.4,1.1-3,.4-5.7,0-8.6l-5.2.5v9.3l5.2-1.2h.1Z"/>
            <path class="st6" d="M384.3,807.8l4.1.2c1.1.8.6,5.9-.1,7.2l-4,.6v-8.1h0Z"/>
            <path class="st9" d="M389.5,833.9l-5.2,1.2v-9.3l5.2-.5c.5,3,1.2,5.7,0,8.6Z"/>
          </g>
          <g>
            <path class="st8" d="M343.1,813.6c5.2-13.9,24.6-16.2,26.1.9s.6,22.6-1.9,27.2c-1,1.9-4.5,5.4-6.3,6.8-4.3,1.7-8.3,2.6-12.8.6-1.2-1.6-.6-.7-1.7-1.2h-.6c-.1,0-.4-.4-.6-.6-.9-2.3-2-3.2-2.3-5.8h.6c1.8,11.5,20.2,9.2,23.5-1.7,1.4-4.6,1.5-22.4.8-27.5-.5-3.8-2.5-7.1-6.3-8.2-8.6-2.6-16.9,3.1-18,11.9h-.6v-2.3h0Z"/>
            <path class="st13" d="M343.1,815.9v1.2c-1,.6-.6,2.2-.6,3.2v16.2c0,1-.3,2.6.6,3.2v1.7c.3,2.6,1.4,3.5,2.3,5.8-1.7-1.6-3.2-4.3-3.5-6.7-.6-5.1-.5-18.6,0-23.8.2-1.7.8-2,1.2-3.2v2.3h0Z"/>
            <path class="st13" d="M361.1,848.4c-3.1,2.3-8.6,3.2-12.4,1.7-.8-.3-.3-1-.4-1.2,4.5,2,8.4,1.2,12.8-.6h0Z"/>
            <path class="st13" d="M346,847.8h.6s.3.4-.6,0Z"/>
            <path class="st3" d="M343.7,841.4c-.7-4.5-.6-20.9,0-25.5,1-8.8,9.5-14.4,18-11.9,3.8,1.1,5.8,4.3,6.3,8.2.7,5,.6,22.9-.8,27.5-3.3,10.9-21.7,13.3-23.5,1.7h0ZM359.9,838.5c.3-1,.5-2.1.6-3.2.4-5,.6-16.2,0-20.9,0-.6-1-2.9-1.3-3.1-.4-.3-1,.6-1,.6-2-.2-1.5-.6-4.1,0,0,0-.2-.5-.9,0-1.7,1.3-2.3,4.8-2.6,6.8-.4,4.1-.6,15.1,0,19,1.1,6,7.4,5.9,9.2,1h0v-.2Z"/>
            <path class="st14" d="M343.7,841.4h-.6v-1.7c-.4-7.2,0-15.2,0-22.6v-1.2h.6c-.6,4.6-.7,21,0,25.5Z"/>
            <path class="st10" d="M343.1,839.7c-1-.6-.6-2.2-.6-3.2v-16.2c0-1-.3-2.6.6-3.2,0,7.4-.4,15.4,0,22.6h0Z"/>
            <path class="st13" d="M358.2,811.9c1.5.8,1.7,3.9,1.7,5.5.2,3.6.5,18.7-.6,21.2-.5,1-1.5,1.3-2.3,1.7.6-.2,1.6-2.8,1.7-3.8.6-4.9.5-16.5,0-21.5,0-.9-.3-1.7-.6-2.5h-3.6c-.5,0-1.2,2.1-1.4,2.7-1.3,4-1.2,16.7-.8,21.3.2,2.6,1.6,4.9,4.6,3.8-.1,0-.3.9-1,1.1-1.6.5-3.9-.9-4.2-2.6.6-7.2-.8-15.6,0-22.6.2-1.6.9-3.4,2.3-4.3,2.6-.6,2-.2,4.1,0h0Z"/>
            <path class="st8" d="M354.1,811.9c-1.4.9-2.1,2.7-2.3,4.3-.8,7,.6,15.4,0,22.6.3,1.7,2.6,3,4.2,2.6.7-.2.8-1,1-1.1.8-.5,1.9-.7,2.3-1.7h.6c-1.7,4.9-8.1,5-9.2-1-.7-3.8-.5-14.9,0-19,.2-2.1.9-5.6,2.6-6.8.6-.5.8,0,.9,0h-.1Z"/>
            <path class="st14" d="M358.2,811.9s.6-.9,1-.6c.3.2,1.2,2.5,1.3,3.1.6,4.8.4,15.9,0,20.9,0,1.1-.2,2.1-.6,3.2h-.6c1.1-2.5.9-17.6.6-21.2-.1-1.5-.3-4.7-1.7-5.5h0Z"/>
          </g>
          <g>
            <path class="st12" d="M520.5,792.7c-1.6,4.6-2.5,12.8-3.5,18v.6c-1.5,8.1-3.1,16.2-4.1,24.4h8.1l1.2-6.9,8.4.5,1.4,6.7c.8.5,5.6.3,7,.2v.6l-.6.6-6.8-.7c-2.2-5.5-1.2-8.4-8.8-7.4-.2,1.7-.2,6.5-1.7,7.2-1.4.7-8.2.7-8.9-1-.5-1.2,1.7-12.7,2.1-15.1,1.4-8.3,2.9-18,4.8-26.2.2-1-.3-1.6,1.4-1.5h0Z"/>
            <path class="st8" d="M517.6,811.3c-1.2,6.4-2.7,14.3-3.4,20.6,0,1,0,2.1,0,3.1h6.4l1.3-7.5,9.2.2,1.1,7.3,7,.6-.6-6.4c.6,2.3,1.6,4.5,1.2,7h-.6c-1.4,0-6.3.3-7-.2l-1.4-6.7-8.4-.5-1.2,6.9h-8.1c1-8.2,2.6-16.3,4.1-24.4h.6-.2Z"/>
            <path class="st8" d="M520.5,792.2l11.7.3,5.7,33.9c-2.6-10.9-4.3-22-6.4-33h-10.1c-1.6,5.2-1.9,10.8-2.9,16.2-.2.8-.9,1.4-.9,1.7l-.6-.6c1-5.2,1.9-13.4,3.5-18v-.6h0Z"/>
            <path class="st13" d="M520.5,792.2c.4-.8.5-1,1.4-1.2,1.8-.3,10.1,0,11.2,1.3l7.7,44h-1.2c.5-2.5-.6-4.7-1.2-7-.2-.9-.3-1.9-.6-2.9l-5.7-33.9-11.7-.3h0Z"/>
            <path class="st3" d="M517.6,811.3h-.6v-.6l.6.6Z"/>
            <path class="st3" d="M517.6,811.3c0-.2.8-.9.9-1.7,1-5.4,1.3-11,2.9-16.3h10.1c2.2,11.1,3.9,22.2,6.4,33.1.2,1,.3,2,.6,2.9l.6,6.4-7-.6-1.1-7.3-9.2-.2-1.3,7.5h-6.4v-3.1c.7-6.3,2.2-14.3,3.4-20.6h0ZM526.3,802v.6c-1.9-.3-1,.9-1.2,2-.5,3.1-1.2,6.3-1.7,9.4-.2,1.3-1.3,6.1,0,6.6,1.9.2,4-.2,5.8,0,.3,0,1,.8,1.2.6l-2.9-19.7c-.9-.2-.8,0-1.2.6h.1Z"/>
            <path class="st12" d="M526.9,807.2l-2.3,12.8h3.5c.6-4.3-1.9-8.5-1.2-12.8,0,0,.5,0,.6.3.7,4.3,1.4,8.7,1.7,13-1.8-.2-3.9.2-5.8,0,1.6-5.5,1.2-12.8,2.9-18v-.6c1.2,1.2.3,3.6.6,5.2h0Z"/>
            <path class="st8" d="M526.3,802c.3-.6.3-.8,1.2-.6l2.9,19.7c-.2.2-.9-.5-1.2-.6-.3-4.3-1-8.7-1.7-13,0-.4-.6-.3-.6-.3-.2-1.6.6-4.1-.6-5.2h0Z"/>
            <path class="st8" d="M526.3,802.6c-1.7,5.2-1.3,12.5-2.9,18-1.2-.4,0-5.2,0-6.6.4-3.1,1.2-6.3,1.7-9.4.2-1.1-.8-2.3,1.2-2h0Z"/>
            <path class="st6" d="M526.9,807.2c-.7,4.3,1.7,8.4,1.2,12.8h-3.5l2.3-12.8h0Z"/>
          </g>
          <g>
            <path class="st13" d="M334.4,834.5c3.1-3.7,3.9-11.2,3.4-15.9-.1-1.3-.3-3.8-1.7-4.4v-.6c-1.6-4.9-7-4.9-11.3-4.6-1.6,0-11.7,1.9-12.4,2.4-.3.3,0,.8-.1,1-.1.3-.9.5,0,1.2v1.7l-.4.5.4.7v2.3c0,10.6-.1,21.3,0,31.9v7l8.1-1.2c-1.2.6-7.3,2.8-8,2.2-.3-.2,0-1-.1-1,0,0-.8.2-1,0-1.4-1.6.8-38.4-.2-43.7l1.4-3.6c8-.8,18.2-5.9,23.9,2.1,3.5,4.9,3,17.9-2.1,22h.1Z"/>
            <path class="st8" d="M336.1,813.6c-6.1-7.7-15.2-2-23.2-1.7v45.2l7.5-1.2.6-15.7c-.3,3,0,7.2,0,10.4v5.2c-.2.2-.4.5-.6.6l-8.1,1.2v-7c-.1-10.6,0-21.3,0-31.9v-6.4c0-.2-.2-.8.1-1,.6-.6,10.7-2.3,12.4-2.4,4.3-.3,9.7-.2,11.3,4.6h0Z"/>
            <path class="st8" d="M334.4,834.5c-.1,0-1.2,0-1.5.6-1,1.4,4.8,13.4,5.3,16.2.1.6.5,1-.3,1.4l-9.2,1.3c-1.7-4.3-2.6-9-4.7-13.3-.1-.2.2-.8,0-1.1h-2.8l1.4-1.3c1.1,0,1.7.3,2.3,1.2,1.4,2,3.8,13.5,4.4,13.9l8.1-1.7-5.6-15.9c5.5-5.3,6.1-14.6,4.4-21.7,1.3.6,1.6,3.2,1.7,4.4.5,4.7-.3,12.2-3.4,15.9h0Z"/>
            <path class="st13" d="M321.1,839.7h2.8c.2.4,0,1,0,1.2-.8-.5-1.6-1.4-1.7.3-.3,4.8.2,9.7,0,14.4-.1.7-1,.2-1.2.3v-4.6l.6-.3-.6-.3c0-3.2-.3-7.4,0-10.4v-.6h.1Z"/>
            <polygon class="st9" points="312.4 816.5 312 815.8 312.4 815.4 312.4 816.5"/>
            <path class="st9" d="M312.4,813.6c-.9-.6-.1-.9,0-1.2v1.2Z"/>
            <path class="st9" d="M312.4,818.8v-.6.6Z"/>
            <path class="st9" d="M312.4,851.3v-.6.6Z"/>
            <path class="st9" d="M312.4,856.5v-.6.6Z"/>
            <path class="st5" d="M336.1,813.6v.6c1.7,7.2,1.1,16.4-4.4,21.7l5.6,15.9-8.1,1.7c-.6-.4-3-11.9-4.4-13.9-.6-.9-1.2-1.3-2.3-1.2l-1.4,1.2v.6l-.6,15.7-7.5,1.2v-45.2c8-.3,17.1-5.9,23.2,1.7h-.1ZM321.1,817.7v14.5c1.4,0,2.7-.6,4.1-1.2.5-.2,1.2,0,2-.5,2.5-1.8,2.5-8.5,1.9-11.2-.8-3.8-5.3-3.1-8-1.6h0Z"/>
            <polygon class="st9" points="321.1 851.3 321.1 850.7 321.6 851 321.1 851.3"/>
            <path class="st12" d="M326.3,829.8c1.7-.8,1.2-8.9,1.1-10.9h-5.2c0,0,0,10.6,0,10.6l.9.8c.8-.5,2.7-.3,3.1-.5-.4.3-.8.8-1.2,1.2-1.3.5-2.6,1-4.1,1.2v-14.5c2.1.3,6-1,7.1,1.3,1.4,3,.7,8.7-1.9,10.9h.2Z"/>
            <path class="st8" d="M325.1,831c.3-.4.8-.8,1.2-1.2,2.6-2.2,3.3-7.8,1.9-10.9-1.1-2.3-5-1-7.1-1.3,2.7-1.6,7.1-2.3,8,1.6.6,2.8.6,9.4-1.9,11.2-.9.6-1.5.3-2,.5h-.1Z"/>
            <path class="st6" d="M326.3,829.8c-.5.2-2.4,0-3.1.5l-.9-.8v-10.7h5.2c0,2.1.6,10.3-1.1,11h-.1Z"/>
          </g>
          <path class="st6" d="M357,840.3c-3.1,1.2-4.4-1.2-4.6-3.8-.4-4.6-.5-17.3.8-21.3.2-.6.9-2.7,1.4-2.8h3.6c.4.9.6,1.7.6,2.6.5,5,.6,16.6,0,21.5-.1.9-1.1,3.5-1.7,3.8h0Z"/>
          <g>
            <path class="st13" d="M427.7,799.1s.8-.2,1,0,2.4,6.3,2.4,7.1c.6,5.5.5,21.5-1.4,26.4-1.7,4.2-8.6,9.3-13.3,9.3s-4.4-.2-3.8-1.7c6.5.7,7.8,1.1,12.8-3.5,0,0,.8.2,1.2-.4,1.7-2.1,3.2-6.1,3.5-8.9.5-5.6.5-15.8,0-21.5-.2-3-1-4.3-2.3-7h-.1Z"/>
            <path class="st8" d="M425.4,796.8l.6.6c.2,0,.3.4.6.6l.6.6c.2.2.3.4.6.6,1.3,2.6,2.1,4,2.3,7h-.6c-1.2-9.2-9.5-12.2-17.4-8.5-8.5,4.1-6.4,16.9-6.3,25,0,3.1-.5,6.4.1,9.7,1.6,9.3,13.4,9.6,19.6,4.5-5,4.6-6.3,4.2-12.8,3.5h-.6c-4.1-1.5-6.9-5.2-7.5-9.6-.6-5-.5-16.2,0-21.4.2-2.5,1.1-4.9,1.7-7.2.8-1,1-1.2,1.7-2.3l1.7-1.7c5.2-3.2,10.1-4.1,15.7-1.2h0v-.2Z"/>
            <path class="st13" d="M412.1,840.3s-.3.5-.8.5c-3.3-.7-6.9-5.6-7.3-8.9-.6-5.6-.6-18.6,0-24.3.3-2.9.8-3.4,2.3-5.5-.6,2.4-1.5,4.8-1.7,7.2-.5,5.2-.6,16.4,0,21.4.6,4.4,3.4,8.1,7.5,9.6h0Z"/>
            <path class="st13" d="M409.8,798l-1.7,1.7c.3-.5.4-1.3.7-1.6.3-.3.9,0,1,0h0Z"/>
            <path class="st13" d="M426,797.4l-.6-.6c.3,0,.4.5.6.6Z"/>
            <path class="st13" d="M427.2,798.5l-.6-.6c.2,0,.4.4.6.6Z"/>
            <path class="st3" d="M429.5,806.1c.6,5.2,0,12.7,0,18.3s-.3,2.6.6,3.2c-.2,2.7-1.7,6.8-3.5,8.9-.5.6-1.1.3-1.2.4-6.1,5.1-18,4.9-19.6-4.5-.6-3.3,0-6.6-.1-9.7-.1-8.1-2.1-20.9,6.3-25,7.9-3.8,16.3-.7,17.4,8.5h.1ZM415,804.3c-.2.2-.5.4-.6.6-1.3,1.9-1.5,1.7-1.7,4.3-.6,6.3.5,13.4,0,19.8-.2,1.2,1.2.8,1.2.8.2.3.1,1.1.8,1.7,2.3,2.1,3.8,0,5.6-.6,0,0,.3.5.5.6.6-1.9,1.6-3.4,1.8-5.5.4-3.9.5-17.9-1.2-20.9-1-1.9-2.6-3.1-4.8-2.5-1,.3-1.1,1.2-1.6,1.6h0Z"/>
            <path class="st14" d="M430.1,827.5c-1-.6-.6-2.2-.6-3.2,0-5.6.7-13,0-18.3h.6c.5,5.6.5,15.9,0,21.5Z"/>
            <path class="st6" d="M421.4,827.5c0,1.4-.5,2.3-1.2,3.5-1.8.6-3.2,2.7-5.6.6-.8-.6-.6-1.5-.8-1.7-1-8-1.2-17,.6-24.9.1-.2.4-.4.6-.6h.6l3.5.2c.8.4,1.3,1.8,1.5,2.6,1.1,4.5.2,13.8.2,19s.6,1.3.6,1.4h0Z"/>
            <path class="st8" d="M415,804.3c.5-.4.6-1.3,1.6-1.6,2.2-.6,3.9.6,4.8,2.5,1.6,3,1.6,17,1.2,20.9-.2,2-1.2,3.6-1.8,5.5-.2,0-.5-.6-.5-.6.6-1.2,1.2-2.1,1.2-3.5v-21.6c-.7-2-4.1-3.1-5.8-1.6h-.7Z"/>
            <path class="st14" d="M413.8,829.8s-1.4.3-1.2-.8c.5-6.4-.5-13.5,0-19.8.2-2.7.4-2.5,1.7-4.3-1.7,7.9-1.6,16.9-.6,24.9h.1Z"/>
            <path class="st13" d="M421.4,827.5s-.6-.6-.6-1.4c0-5.2.9-14.4-.2-19-.2-.8-.8-2.2-1.5-2.6l-3.5-.2c1.7-1.5,5.1-.5,5.7,1.6v21.6h.1Z"/>
          </g>
        </g>
      </g>
      <path class="st5" d="M482,855.3v.5c1.2,4.3,5.8,12.1,8.5,15.7.6.8,1.4,1.4,1.4,2.4.7,0,.5-.4.6-.5,1.7-2.4-1.4-18.1-.6-18.8h6.8l3.1,38.5-7.8-1-7.4-13.7-4.1-6.3.7,19.8c-1.9-.5-6.6.3-7.4-1.4-1.2-11.3-1.3-22.7-2.4-34.1-.1-1-.1-1.6-.8-2.5,3,.2,7.6-.8,9.4,1.4h.1-.1Z"/>
    </g>
    <path class="st5" d="M454.1,856.3l8.3-.6,3.7,29.3c.3,2.3.9,5.1,1.1,7.3,0,1.6-1.3.9-2.3.9s-2,.3-2.8.2c-.3,0-.2-.4-.6-.4-1.1,0-2.9.9-3.4-.8-.1-.5-.3-1.7-.4-2.4l-3.7-31.4v-2.3h0v.2Z"/>
    <path class="st5" d="M517.6,855.3v.5c1,4.3,5.2,12.3,7.8,16.1.5.8,1.3,1.4,1.3,2.5.7,0,.5-.4.6-.5,1.8-2.4-.6-18.1.2-18.8l6.8.3,1.4,38.6-7.8-1.4-6.8-14.1-3.8-6.5-.2,19.8c-1.9-.6-6.6,0-7.4-1.7-.6-11.4-.2-22.8-.8-34.2,0-1,0-1.6-.7-2.5,3,.3,7.6-.5,9.3,1.9h0Z"/>
    <path class="st5" d="M595.3,865.9c0,.2,0,.3,0,.5.3,6.4-1.7,14.1-7.8,17.6l2.2,17-7.4-1.4c-.5-.5-1-11.6-1.9-13.6-.4-.9-.9-1.3-1.9-1.4l-1.6.8c0,.2,0,.3,0,.5l-3.2,13.2-7.2-.4,5.2-39.8c7.5,1.3,19.4-.4,23.8,7.2h0v-.2ZM578.3,865.9l-1.4,12c1.3,0,3.7.6,5.3.8.5,0,1,.3,2,0,2.6-1.1,3.8-6.7,3.7-9.2,0-3.4-6-4.5-8.8-3.7h-.7c0,0,0,.1,0,.1Z"/>
    <path class="st5" d="M550.9,878.8l.5-.6c-.6,0-.9,1.1-.9,1.7v8.2c0,.5.4,1,1,1.2l9.9,1.9c.6,0,1,.6,1,1.2v3.4c0,.7-.8,1.2-1.5,1.1l-16.8-1.9c-.6,0-1.1-.6-1.1-1.2l.5-37.4c0-.7.6-1.2,1.4-1.1l16.7,1.9c.6,0,1.1.6,1.1,1.2v4c0,.7-.9,1.2-1.6,1.1-2.9-.6-7.8-1.6-9-.5-1.2,1-.6,5-.7,7.4,0,2.4,0,2,.6,2s0,0,0,0c.6,0,1.2.2,2.2.2s.6,0,1.4,0c1.3.2,2.7,0,4,.4s.9.6.8,1.1v3.5c0,1-.8,1.6-1.5,1.4-2.1-.4-6.7-1.8-7.6-.7-.2,0,.2,0,0,0l-.5.6h0c0,0,0-.2,0-.2Z"/>
    <path class="st5" d="M405.9,861.9s.2,0,.3.2l5.9,16.2c.3,1.2.6,2.3,1,3.5.3.9.7,1.8.9,2.7l.3-.3c.6-4.4,1.1-8.9,1.7-13.3.5-3.5.9-7,1.3-10.5.3-.5,6.4-1.3,7.4-1.4.2,0,.4,0,.6.2l8.7,19.1c.3.9.5,1.8.9,2.6.1.3-.1.4.5.3,0-2,.2-4,.3-6,0-.5-.2-.9-.2-1.3v-.2c.4-.3.3-.7.3-1.1.2-1.9,0-3.9.1-5.7v-.2c.9-1.4.1-8.2.9-9s1.7-.3,2.6-.4c1.2-.2,6.3-1.2,6.9-.8.2,0,.3.4.4.6l-2.3,40s-.1.2-.2.3c-.6.4-1.5.5-2.2.6-.4,0-.9,0-1,0l-4.7.7s-.4-.2-.8,0c-.8,0-1.6.5-2.3,0,0,0-.2-.2-.3-.2l-9-21c-.3,0-.3.4-.3.7-.7,3.3-.8,7.7-1.2,11.1-.4,3.7-.9,7.4-1.2,11-.2.5-.3.5-.8.6-2.2.5-4.8.6-7.1,1-1,.2-2.1,1-3.2.2-.6-.9-.9-2.6-1.4-3.7-.1-.3-.4-.5-.5-.6,0-2-1.3-3.7-2-5.5-2.9-8.5-7.2-17.9-9.7-26.4-.2-.6-.5-1.4-.1-2,.1,0,.2-.3.2-.3,3-.8,6.4-.8,9.4-1.4h-.1,0Z"/>
  </g>
  <polygon class="st0" points="241.9 -238.2 96.8 -138.5 -62.1 -214.3 -75.9 -389.8 69.2 -489.5 228.1 -413.7 241.9 -238.2"/>
  <path class="st5" d="M694.5,653.1"/>
  <path class="st5" d="M691.8,639"/>
  <g>
    <path class="st9" d="M632.4,875.2c-.2-.8-.6-1.2-1.1-1.3s-1.2,0-1.9.3c-.3,0-.8.3-1.2.6-.5.3-.9.5-1.3.7s-.9.2-1.3,0c-.4,0-.8-.4-1.1-1-.3-.5-.3-.9,0-1.4.2-.4.5-.8.8-1.2.3-.3.8-.6,1.3-.9s.9-.5,1.2-.6c.8-.3,1.6-.6,2.4-.7s1.6,0,2.4,0,1.4.5,2,1,1,1.2,1.3,2.1c.3.9.4,1.7.3,2.6,0,.8-.2,1.6-.5,2.3s-.8,1.4-1.3,2c-.6.6-1.3,1.1-2.1,1.5-.5.2-1,.5-1.6.6s-1.2.5-1.7.7c-.6.2-1,.6-1.5,1-.5.3-.8.9-1,1.4.2,0,.5,0,1,.2.4,0,.9.2,1.4.3s1,.2,1.6.3,1.1,0,1.6,0c0,0-.2,0-.2,0,.3-.2.7-.5,1-.7s.7-.2,1.2,0c.3,0,.6.2.9.5.2.3.4.6.5.9s0,.7,0,1c0,.3-.3.6-.6.9-.6.5-1.2.9-1.8,1.1-.6.3-1.3.3-2.1.2l-7.2-1.3c-.5,0-.8-.3-1.1-.7-.3-.3-.5-.8-.5-1.2s0-.7.2-1c0-.3.2-.6.3-1,.3-.8.6-1.5,1-2.1.3-.6.8-1.2,1.3-1.6.5-.5,1-.9,1.7-1.2.6-.3,1.3-.7,2.1-1,.3,0,.8-.3,1.3-.5s1-.5,1.4-.8c.5-.3.8-.7,1-1.1.2-.4.3-.9,0-1.4v.2h-.1Z"/>
    <path class="st9" d="M653.5,886.3c-.5,1.4-1.3,2.7-2.3,3.9s-2.3,2.1-3.7,2.7c-.8.2-1.4.3-2.3.2-.8,0-1.5-.2-2.2-.5-.7-.2-1.3-.6-1.9-1.1-.6-.5-1-1.1-1.4-1.8-.8-1.6-1.2-3.1-1.2-4.6s.3-3.1.8-4.6c.4-1.1.9-2.2,1.6-3.2.6-1,1.5-1.9,2.5-2.6.8-.6,1.6-.9,2.5-1.2.9-.2,1.7-.2,2.6,0s1.6.5,2.4.9,1.4,1.1,2,1.9,1,1.6,1.2,2.4c.2.9.3,1.7.4,2.6,0,.9,0,1.7-.3,2.6-.2.9-.5,1.7-.8,2.6h.1ZM650.2,885.1c.2-.6.4-1.3.6-2.1,0-.8.2-1.6,0-2.4,0-.8-.3-1.5-.8-2.1-.4-.6-1-1-2-1.2-.9-.2-1.8,0-2.5.5s-1.3,1.2-1.7,2c-.5.9-.8,1.7-1,2.7-.2.9-.3,1.7-.4,2.4v1.4c0,.5.2,1,.3,1.4s.4.8.8,1.2c.3.3.8.5,1.3.6.8,0,1.4,0,1.9-.2s1-.5,1.4-.9.8-.9,1.1-1.4c.3-.6.6-1.2.9-1.7v-.2h.2,0Z"/>
    <path class="st9" d="M665.9,881.5c-.2-.8-.6-1.2-1.1-1.3s-1.2,0-1.9.3c-.3,0-.8.3-1.2.6s-.9.5-1.3.7-.9.2-1.3,0-.8-.4-1.1-1c-.3-.5-.3-.9,0-1.4.2-.4.5-.8.8-1.2s.8-.6,1.3-.9.9-.5,1.2-.6c.8-.3,1.6-.6,2.4-.7s1.6,0,2.4,0,1.4.5,2,1,1,1.2,1.3,2.1c.3.9.4,1.7.3,2.6,0,.8-.2,1.6-.5,2.3s-.8,1.4-1.3,2c-.6.6-1.3,1.1-2.1,1.5-.5.2-1,.5-1.6.6-.6.2-1.2.5-1.7.7s-1,.6-1.5,1c-.5.3-.8.9-1,1.4.2,0,.5,0,1,.2.4,0,.9.2,1.4.3s1,.2,1.6.3,1.1,0,1.6,0c0,0-.2,0-.2,0,.3-.2.7-.5,1-.7s.7-.2,1.2,0c.3,0,.6.2.9.5s.4.6.5.9,0,.7,0,1c0,.3-.3.6-.6.9-.6.5-1.2.9-1.8,1.1-.6.3-1.3.3-2.1.2l-7.2-1.3c-.5,0-.8-.3-1.1-.7-.3-.3-.5-.8-.5-1.2s0-.7.2-1c0-.3.2-.6.3-1,.3-.8.6-1.5,1-2.1.3-.6.8-1.2,1.3-1.6.5-.5,1-.9,1.7-1.2.6-.3,1.3-.7,2.1-1,.3,0,.8-.3,1.3-.5s1-.5,1.4-.8c.5-.3.8-.7,1-1.1.2-.4.3-.9,0-1.4v.2h-.1Z"/>
    <path class="st9" d="M673.3,896.7c-.2-.4-.3-.8-.3-1.2s0-.8.3-1.1.5-.5.9-.7.8-.2,1.3,0c.2,0,.5.2.7.4s.4.4.6.5c.3.2.6.4,1,.6.3.2.8.3,1.1.3h1.3c.4,0,.8-.2,1.2-.4.5-.3.8-.7,1-1.1.4-.8.6-1.4.3-1.9-.2-.6-.5-1-1-1.3s-1.1-.6-1.7-.8c-.7-.2-1.3-.2-1.9-.2l-.2.2s0,0-.2,0c-.3.2-.6.3-.9.3s-.6,0-.9-.2c-.3,0-.5-.3-.7-.6-.2-.2-.3-.6-.3-.9v-1.3c0-.5.2-.9.2-1.3s0-.6,0-.9,0-.6.2-1v-.4c0-.2.2-.4.2-.7s0-.5,0-.7v-.5c0-.2-.2-.5-.2-.8s0-.5,0-.8c0-.2.2-.5.4-.7s.4-.3.7-.5c.4-.2.8-.2,1.2,0l1.3.2c.2,0,.6,0,1.2.2.5,0,1,.2,1.6.3s1,.2,1.6.2.8,0,.9.2c.5,0,1,0,1.3,0s.7,0,1.1.4c.3.2.6.5.8.8s.2.6.2,1,0,.6-.3,1c-.2.3-.5.5-.8.7-.5.2-1,.3-1.6.2l-1.5-.3c-.7,0-1.4-.2-2-.3-.7,0-1.3-.2-2-.3,0,.5-.2.9-.2,1.3s0,.9-.2,1.3c.5,0,1,0,1.5,0,.5,0,1,.2,1.4.3.5.2,1,.5,1.4.8s.9.6,1.3,1c.5.5.9,1,1.2,1.7.3.6.5,1.3.6,2,.2.9,0,1.7,0,2.4,0,.8-.5,1.4-1,2.1-.5.6-1,1.2-1.7,1.7-.6.5-1.4.8-2.1,1-.8.2-1.6.3-2.3.4-.8,0-1.6,0-2.3-.4-1.3-.5-2.6-1.3-3.7-2.3h0c0,0,0-.2,0-.2h0Z"/>
  </g>
</svg>